<svg width="21" height="21" viewBox="0 0 21 21" fill="none" xmlns="http://www.w3.org/2000/svg">
<path fill-rule="evenodd" clip-rule="evenodd" d="M20 10.5C20 15.7467 15.7467 20 10.5 20C5.2533 20 1 15.7467 1 10.5C1 5.2533 5.2533 1 10.5 1C15.7467 1 20 5.2533 20 10.5ZM21 10.5C21 16.299 16.299 21 10.5 21C4.70105 21 0 16.299 0 10.5C0 4.701 4.70105 0 10.5 0C16.299 0 21 4.701 21 10.5ZM15.3834 10.2622C15.4441 10.1959 15.4786 10.1098 15.4806 10.02V7.09C15.4779 6.99361 15.4379 6.90205 15.3687 6.83481C15.2996 6.76758 15.2069 6.72997 15.1106 6.73H8.2605C8.25122 6.68796 8.24304 6.64131 8.2345 6.59251C8.18848 6.32791 8.13135 6 7.81055 6H6.37048C6.32019 5.99992 6.27039 6.01012 6.22412 6.02995C6.17798 6.04979 6.13623 6.07884 6.10156 6.11534C6.06689 6.15186 6.04016 6.19504 6.02271 6.24226C6.00537 6.28949 5.9978 6.33975 6.00049 6.39C6.00305 6.48734 6.04285 6.57999 6.11169 6.64883C6.18054 6.71768 6.27319 6.75748 6.37048 6.75999H7.52051L8.52051 11.46C8.36523 11.7009 8.24719 11.9638 8.17053 12.24C8.1731 12.3364 8.21326 12.4279 8.28235 12.4952C8.35144 12.5624 8.44409 12.6 8.54053 12.6H8.67212C8.56799 12.636 8.4729 12.6953 8.39441 12.7738C8.29224 12.8759 8.22278 13.006 8.19458 13.1476C8.16638 13.2892 8.18091 13.436 8.23608 13.5694C8.29138 13.7027 8.38489 13.8168 8.505 13.897C8.625 13.9772 8.76611 14.02 8.91052 14.02V14.03C9.1051 14.0274 9.29077 13.9482 9.42737 13.8098C9.56396 13.6713 9.6405 13.4845 9.6405 13.29C9.6405 13.1456 9.59778 13.0045 9.51746 12.8844C9.43726 12.7644 9.32324 12.6708 9.18994 12.6156C9.17639 12.61 9.16272 12.6048 9.14893 12.6H13.7822C13.678 12.636 13.5829 12.6953 13.5044 12.7738C13.4022 12.8759 13.3328 13.006 13.3046 13.1476C13.2764 13.2892 13.2909 13.436 13.3461 13.5694C13.4014 13.7027 13.4949 13.8168 13.615 13.897C13.735 13.9772 13.8762 14.02 14.0205 14.02V14.03C14.1173 14.03 14.213 14.0108 14.3022 13.9735C14.3915 13.9362 14.4724 13.8815 14.5403 13.8127C14.6083 13.7438 14.6617 13.6622 14.6979 13.5724C14.734 13.4827 14.7518 13.3867 14.7505 13.29C14.7505 13.1456 14.7078 13.0045 14.6276 12.8844C14.5472 12.7644 14.4333 12.6708 14.2999 12.6156C14.2864 12.61 14.2727 12.6048 14.2589 12.6H14.3705C14.4209 12.6001 14.4707 12.5899 14.517 12.5701C14.5631 12.5502 14.6049 12.5212 14.6395 12.4846C14.6742 12.4482 14.7009 12.405 14.7184 12.3577C14.7357 12.3105 14.7433 12.2602 14.7406 12.21C14.738 12.1127 14.6982 12.02 14.6294 11.9512C14.5605 11.8823 14.4679 11.8425 14.3705 11.84H9.13049C9.20593 11.7332 9.25403 11.6096 9.27051 11.48C9.25781 11.345 9.23438 11.2113 9.20056 11.08L15.1505 10.38C15.2399 10.3703 15.3226 10.3284 15.3834 10.2622Z" fill="white"/>
</svg>
